<svg data-v-0dd9719b="" version="1.0" xmlns="http://www.w3.org/2000/svg" xmlns:xlink="http://www.w3.org/1999/xlink" width="100%" height="100%" viewBox="0 0 340.000000 250.000000" preserveAspectRatio="xMidYMid meet" color-interpolation-filters="sRGB" style="margin: auto;"> <rect data-v-0dd9719b="" x="0" y="0" width="100%" height="100%" fill="#fff" fill-opacity="1" class="background"></rect> <rect data-v-0dd9719b="" x="0" y="0" width="100%" height="100%" fill="url(#watermark)" fill-opacity="1" class="watermarklayer"></rect> <g data-v-0dd9719b="" fill="#333" class="icon-text-wrapper icon-svg-group iconsvg" transform="translate(59.567779541015625,93.39310455322266)"><g class="iconsvg-imagesvg" transform="translate(0,0)"><g><rect fill="#333" fill-opacity="0" stroke-width="2" x="0" y="0" width="60" height="63.213789034514726" class="image-rect"></rect> <svg x="0" y="0" width="60" height="63.213789034514726" filtersec="colorsb8195536534" class="image-svg-svg primary" style="overflow: visible;"><svg xmlns="http://www.w3.org/2000/svg" viewBox="0.006116670090705156 0.006116670090705156 94.90999603271484 99.99388885498047"><defs><linearGradient id="a7e7d890f-267e-4348-886f-350f594f2f58" x1="34.93" y1="68.73" x2="94.92" y2="68.73" gradientUnits="userSpaceOnUse"><stop offset="0" stop-color="#1eedc4"></stop><stop offset="1" stop-color="#1e9eed"></stop></linearGradient><linearGradient id="b121486f6-a521-4e2f-a3d9-5c8b534b652c" x1="16.82" y1="45.25" x2="48.77" y2="87.85" gradientUnits="userSpaceOnUse"><stop offset="0" stop-color="#1e9eed"></stop><stop offset="1" stop-color="#090380"></stop></linearGradient><linearGradient id="c756f81bd-29d5-43c6-aa8f-f84e21dfecfc" x1="50.23" y1="22.05" x2="102.44" y2="79.48" gradientUnits="userSpaceOnUse"><stop offset="0" stop-color="#1e9eed"></stop><stop offset="1" stop-color="#090380"></stop></linearGradient><linearGradient id="df3ba3f6f-c034-4b05-9a0f-7c63ac093bf8" x1="38.39" y1="22.98" x2="18.96" y2="53.89" gradientUnits="userSpaceOnUse"><stop offset="0" stop-color="#1eedc4"></stop><stop offset="1" stop-color="#1e9eed"></stop></linearGradient></defs><g><g><path d="M47.46 100a12.53 12.53 0 0 1-12.53-12.53c0-13 5.39-25.52 15.17-35.34 9.28-9.32 21.05-14.66 32.28-14.66a12.53 12.53 0 1 1 0 25.06C73.54 62.53 60 73.7 60 87.47A12.53 12.53 0 0 1 47.46 100z" opacity=".8" fill="url(#a7e7d890f-267e-4348-886f-350f594f2f58)"></path><path d="M47.46 100a12.53 12.53 0 0 1-12.53-12.53c0-13.77-13.56-24.94-22.4-24.94a12.53 12.53 0 0 1 0-25.06c11.24 0 23 5.34 32.28 14.66C54.6 62 60 74.5 60 87.47A12.53 12.53 0 0 1 47.46 100z" opacity=".8" fill="url(#b121486f6-a521-4e2f-a3d9-5c8b534b652c)"></path><path d="M82.38 62.53c-11.23 0-23-5.34-32.28-14.66-9.78-9.82-15.17-22.37-15.17-35.34a12.53 12.53 0 0 1 25.06 0C60 26.3 73.54 37.47 82.38 37.47a12.53 12.53 0 1 1 0 25.06z" opacity=".8" fill="url(#c756f81bd-29d5-43c6-aa8f-f84e21dfecfc)"></path><path d="M12.53 62.53a12.53 12.53 0 0 1 0-25.06c8.84 0 22.4-11.17 22.4-24.94a12.53 12.53 0 0 1 25.06 0c0 13-5.39 25.52-15.18 35.34-9.27 9.32-21.04 14.66-32.28 14.66z" opacity=".8" fill="url(#df3ba3f6f-c034-4b05-9a0f-7c63ac093bf8)"></path></g></g></svg></svg> <!----></g></g> <g transform="translate(67,3.630645751953125)"><g data-gra="path-name" fill-rule="" class="tp-name iconsvg-namesvg" transform="translate(0,0)"><g transform="scale(1)"><g><path d="M35.91-30.87Q36.45-30.87 36.74-30.51 37.03-30.15 37.03-29.74L37.03-29.74Q37.03-29.34 36.74-28.98 36.45-28.62 35.91-28.62L35.91-28.62 20.65-28.62 20.65-23.4 20.65-23.31 27.49-23.31Q30.91-23.31 32.58-21.42 34.24-19.53 34.24-16.96L34.24-16.96 34.24-0.49Q34.24 1.35 33.14 2.29 32.04 3.24 30.2 3.33L30.2 3.33Q29.7 3.38 29.38 3.01 29.07 2.65 29.07 2.25L29.07 2.25Q29.07 1.26 30.06 1.08L30.06 1.08Q31.23 0.85 31.61 0.27 31.99-0.32 31.99-1.98L31.99-1.98 31.99-16.74Q31.99-18.5 30.91-19.78 29.83-21.06 27.04-21.06L27.04-21.06 11.88-21.06Q9.09-21.06 8.01-19.78 6.93-18.5 6.93-16.74L6.93-16.74 6.93 2.79Q6.93 3.33 6.57 3.62 6.21 3.92 5.8 3.92L5.8 3.92Q5.4 3.92 5.04 3.62 4.68 3.33 4.68 2.79L4.68 2.79 4.68-16.96Q4.68-19.53 6.34-21.42 8.01-23.31 11.43-23.31L11.43-23.31 18.4-23.31 18.4-23.4 18.4-28.62 3.1-28.62Q2.56-28.62 2.27-28.98 1.98-29.34 1.98-29.74L1.98-29.74Q1.98-30.15 2.27-30.51 2.56-30.87 3.1-30.87L3.1-30.87 18.4-30.87 18.4-34.96Q18.4-35.5 18.77-35.8 19.13-36.09 19.53-36.09L19.53-36.09Q19.93-36.09 20.29-35.8 20.65-35.5 20.65-34.96L20.65-34.96 20.65-30.87 35.91-30.87ZM16.79-14.17Q16.47-13.95 16.06-13.95L16.06-13.95Q15.52-13.95 15.21-14.45L15.21-14.45 12.87-17.91Q12.64-18.27 12.64-18.59L12.64-18.59Q12.64-19.13 13.14-19.44L13.14-19.44Q13.5-19.66 13.81-19.66L13.81-19.66Q14.35-19.66 14.71-19.17L14.71-19.17 17.05-15.75Q17.28-15.48 17.28-15.07L17.28-15.07Q17.28-14.49 16.79-14.17L16.79-14.17ZM29.97-5.98Q29.97-5.58 29.68-5.22 29.38-4.86 28.84-4.86L28.84-4.86 20.61-4.86 20.61 1.98Q20.61 2.52 20.25 2.81 19.89 3.1 19.48 3.1L19.48 3.1Q19.08 3.1 18.72 2.81 18.36 2.52 18.36 1.98L18.36 1.98 18.36-4.86 10.08-4.86Q9.54-4.86 9.25-5.22 8.96-5.58 8.96-5.98L8.96-5.98Q8.96-6.39 9.25-6.75 9.54-7.11 10.08-7.11L10.08-7.11 18.36-7.11 18.36-11.56 10.93-11.56Q10.39-11.56 10.1-11.92 9.81-12.29 9.81-12.69L9.81-12.69Q9.81-13.09 10.1-13.46 10.39-13.81 10.93-13.81L10.93-13.81 20.65-13.81 24.21-19.13Q24.52-19.62 25.06-19.62L25.06-19.62Q25.47-19.62 25.79-19.39L25.79-19.39Q26.23-19.08 26.23-18.5L26.23-18.5Q26.23-18.18 26.05-17.86L26.05-17.86 23.36-13.81 27.99-13.81Q28.53-13.81 28.82-13.46 29.11-13.09 29.11-12.69L29.11-12.69Q29.11-12.29 28.82-11.92 28.53-11.56 27.99-11.56L27.99-11.56 20.61-11.56 20.61-7.11 28.84-7.11Q29.38-7.11 29.68-6.75 29.97-6.39 29.97-5.98L29.97-5.98ZM43.24-21.6Q42.84-21.6 42.48-21.89 42.12-22.18 42.12-22.72L42.12-22.72 42.12-24.48Q42.12-26.95 43.88-28.53 45.63-30.11 48.87-30.11L48.87-30.11 57.96-30.11 57.96-34.65Q57.96-35.19 58.32-35.48 58.68-35.77 59.09-35.77L59.09-35.77Q59.49-35.77 59.85-35.48 60.21-35.19 60.21-34.65L60.21-34.65 60.21-30.11 69.53-30.11Q71.69-30.11 73.22-29.29 74.75-28.48 75.51-27.18 76.28-25.88 76.28-24.48L76.28-24.48 76.28-22.72Q76.28-22.18 75.91-21.89 75.56-21.6 75.15-21.6L75.15-21.6Q74.75-21.6 74.38-21.89 74.03-22.18 74.03-22.72L74.03-22.72 74.03-24.03Q74.03-25.56 72.79-26.71 71.55-27.86 69.08-27.86L69.08-27.86 49.32-27.86Q46.84-27.86 45.61-26.71 44.37-25.56 44.37-24.03L44.37-24.03 44.37-22.72Q44.37-22.18 44.01-21.89 43.65-21.6 43.24-21.6L43.24-21.6ZM75.24-18.72Q75.78-18.72 76.07-18.36 76.37-18 76.37-17.59L76.37-17.59Q76.37-17.19 76.07-16.83 75.78-16.47 75.24-16.47L75.24-16.47 60.93-16.47 60.93-0.63Q60.93 2.38 58.23 2.97L58.23 2.97Q58.05 3.01 57.6 3.1 57.15 3.19 56.79 3.19L56.79 3.19Q56.34 3.19 56.05 2.86 55.75 2.52 55.75 2.11L55.75 2.11Q55.75 1.71 56.05 1.4 56.34 1.08 56.88 0.99L56.88 0.99Q57.91 0.81 58.3 0.18 58.68-0.45 58.68-2.11L58.68-2.11 58.68-16.47 42.88-16.47Q42.34-16.47 42.05-16.83 41.76-17.19 41.76-17.59L41.76-17.59Q41.76-18 42.05-18.36 42.34-18.72 42.88-18.72L42.88-18.72 75.24-18.72ZM82.53-30.2Q81.99-30.2 81.7-30.55 81.41-30.91 81.41-31.32L81.41-31.32Q81.41-31.72 81.7-32.09 81.99-32.45 82.53-32.45L82.53-32.45 97.34-32.45 97.34-35.23Q97.34-35.77 97.69-36.07 98.06-36.36 98.46-36.36L98.46-36.36Q98.86-36.36 99.22-36.07 99.59-35.77 99.59-35.23L99.59-35.23 99.59-32.45 114.48-32.45Q115.02-32.45 115.31-32.09 115.6-31.72 115.6-31.32L115.6-31.32Q115.6-30.91 115.31-30.55 115.02-30.2 114.48-30.2L114.48-30.2 99.59-30.2 99.59-27.45 112.55-27.45Q113.09-27.45 113.38-27.09 113.67-26.73 113.67-26.32L113.67-26.32Q113.67-25.92 113.38-25.56 113.09-25.2 112.55-25.2L112.55-25.2 84.28-25.2Q83.75-25.2 83.45-25.56 83.16-25.92 83.16-26.32L83.16-26.32Q83.16-26.73 83.45-27.09 83.75-27.45 84.28-27.45L84.28-27.45 97.34-27.45 97.34-30.2 82.53-30.2ZM89.95-23.54L106.83-23.54Q108.77-23.54 109.84-22.5 110.92-21.46 110.92-20.02L110.92-20.02 110.92-19.66Q110.92-18.22 109.84-17.21 108.77-16.2 106.83-16.2L106.83-16.2 89.95-16.2Q88.02-16.2 86.94-17.21 85.86-18.22 85.86-19.66L85.86-19.66 85.86-20.02Q85.86-21.46 86.94-22.5 88.02-23.54 89.95-23.54L89.95-23.54ZM108.67-19.84Q108.67-20.38 108.13-20.84 107.59-21.29 106.61-21.29L106.61-21.29 90.18-21.29Q89.19-21.29 88.65-20.84 88.11-20.38 88.11-19.84L88.11-19.84Q88.11-19.3 88.65-18.88 89.19-18.45 90.18-18.45L90.18-18.45 106.61-18.45Q107.59-18.45 108.13-18.88 108.67-19.3 108.67-19.84L108.67-19.84ZM115.2-12.87Q115.74-12.87 116.03-12.51 116.32-12.15 116.32-11.74L116.32-11.74Q116.32-11.34 116.03-10.98 115.74-10.62 115.2-10.62L115.2-10.62 81.63-10.62Q81.09-10.62 80.8-10.98 80.5-11.34 80.5-11.74L80.5-11.74Q80.5-12.15 80.8-12.51 81.09-12.87 81.63-12.87L81.63-12.87 91.89-12.87 90.81-14.31Q90.54-14.67 90.54-14.98L90.54-14.98Q90.54-15.52 90.99-15.88L90.99-15.88Q91.31-16.11 91.66-16.11L91.66-16.11Q92.16-16.11 92.56-15.66L92.56-15.66 94.68-12.87 102.24-12.87 104.36-15.71Q104.76-16.16 105.25-16.16L105.25-16.16Q105.61-16.16 105.93-15.93L105.93-15.93Q106.38-15.57 106.38-15.03L106.38-15.03Q106.38-14.71 106.11-14.35L106.11-14.35 104.98-12.87 115.2-12.87ZM91.48-7.42Q95.13-7.42 96.37-6.01 97.61-4.59 97.61-2.43L97.61-2.43Q97.61-1.08 97.38-0.14L97.38-0.14Q97.02 1.35 95.94 2.34 94.86 3.33 93.73 3.55L93.73 3.55Q93.19 3.69 92.79 3.69L92.79 3.69Q92.25 3.69 91.87 3.35 91.48 3.01 91.48 2.61L91.48 2.61Q91.48 2.16 91.78 1.8 92.07 1.44 92.61 1.35L92.61 1.35Q93.78 1.13 94.43 0.54 95.09-0.04 95.27-1.35L95.27-1.35Q95.31-1.62 95.31-2.11L95.31-2.11Q95.31-2.29 95.27-3.22 95.22-4.14 94.16-4.66 93.11-5.17 91.03-5.17L91.03-5.17 89.55-5.17Q89.23-2.34 87.89-0.22 86.53 1.89 82.89 4.14L82.89 4.14Q82.53 4.37 82.26 4.37L82.26 4.37Q81.81 4.37 81.27 3.73L81.27 3.73Q81.14 3.55 81.14 3.24L81.14 3.24Q81.14 2.56 81.77 2.21L81.77 2.21Q84.78 0.36 85.91-1.33 87.03-3.01 87.3-5.17L87.3-5.17 82.8-5.17Q82.26-5.17 81.97-5.54 81.67-5.89 81.67-6.3L81.67-6.3Q81.67-6.71 81.97-7.06 82.26-7.42 82.8-7.42L82.8-7.42 87.48-7.42 87.57-8.55Q87.61-9 87.97-9.27 88.33-9.54 88.74-9.54L88.74-9.54Q89.14-9.54 89.5-9.2 89.86-8.87 89.82-8.32L89.82-8.32 89.73-7.42 91.48-7.42ZM107.64-7.69Q110.3-7.69 111.73-6.23 113.17-4.77 113.17-2.7L113.17-2.7 113.17-1.89Q113.17 0.18 111.73 1.64 110.3 3.1 107.64 3.1L107.64 3.1 106.65 3.1Q104 3.1 102.56 1.64 101.11 0.18 101.11-1.89L101.11-1.89 101.11-2.7Q101.11-4.77 102.56-6.23 104-7.69 106.65-7.69L106.65-7.69 107.64-7.69ZM110.92-2.11L110.92-2.48Q110.92-3.73 110.07-4.59 109.22-5.44 107.19-5.44L107.19-5.44 107.1-5.44Q105.12-5.44 104.24-4.59 103.36-3.73 103.36-2.48L103.36-2.48 103.36-2.11Q103.36-0.9 104.27-0.02 105.16 0.85 107.1 0.85L107.1 0.85 107.19 0.85Q109.13 0.85 110.03-0.02 110.92-0.9 110.92-2.11L110.92-2.11ZM132.88-20.88Q132.34-20.88 132.05-21.24 131.76-21.6 131.76-22L131.76-22Q131.76-22.41 132.05-22.77 132.34-23.13 132.88-23.13L132.88-23.13 142.47-23.13 142.47-25.38 134.64-25.38Q134.1-25.38 133.81-25.74 133.51-26.1 133.51-26.5L133.51-26.5Q133.51-26.91 133.81-27.27 134.1-27.63 134.64-27.63L134.64-27.63 142.47-27.63 142.47-29.92 133.51-29.92Q132.97-29.92 132.68-30.29 132.39-30.64 132.39-31.05L132.39-31.05Q132.39-31.45 132.68-31.81 132.97-32.17 133.51-32.17L133.51-32.17 146.93-32.17 146.75-32.27Q146.25-32.58 146.25-33.16L146.25-33.16Q146.25-33.48 146.47-33.84L146.47-33.84 147.91-36.13Q148.23-36.63 148.81-36.63L148.81-36.63Q149.26-36.63 149.49-36.45L149.49-36.45Q150.03-36.09 150.03-35.5L150.03-35.5Q150.03-35.23 149.81-34.88L149.81-34.88 148.32-32.58Q148.09-32.31 147.87-32.17L147.87-32.17 153.68-32.17Q154.22-32.17 154.51-31.81 154.8-31.45 154.8-31.05L154.8-31.05Q154.8-30.64 154.51-30.29 154.22-29.92 153.68-29.92L153.68-29.92 144.72-29.92 144.72-27.63 152.5-27.63Q153.05-27.63 153.34-27.27 153.63-26.91 153.63-26.5L153.63-26.5Q153.63-26.1 153.34-25.74 153.05-25.38 152.5-25.38L152.5-25.38 144.72-25.38 144.72-23.13 154.35-23.13Q154.89-23.13 155.18-22.77 155.47-22.41 155.47-22L155.47-22Q155.47-21.6 155.18-21.24 154.89-20.88 154.35-20.88L154.35-20.88 132.88-20.88ZM138.74-32.85L137.52-34.7Q137.29-35.05 137.29-35.32L137.29-35.32Q137.29-35.91 137.84-36.27L137.84-36.27Q138.06-36.45 138.47-36.45L138.47-36.45Q139-36.45 139.37-35.95L139.37-35.95 140.58-34.11Q140.81-33.75 140.81-33.44L140.81-33.44Q140.81-32.85 140.31-32.53L140.31-32.53Q140.09-32.35 139.63-32.35L139.63-32.35Q139.05-32.35 138.74-32.85L138.74-32.85ZM126.41-32.45Q127.98-32.45 129.13-31.23 130.28-30.02 130.28-27.9L130.28-27.9 130.28-5.04Q130.28-2.92 129.13-1.71 127.98-0.49 126.41-0.49L126.41-0.49 125.69-0.49Q124.11-0.49 122.96-1.71 121.81-2.92 121.81-5.04L121.81-5.04 121.81-27.9Q121.81-30.02 122.96-31.23 124.11-32.45 125.69-32.45L125.69-32.45 126.41-32.45ZM126.05-30.2Q125.19-30.2 124.63-29.59 124.06-28.98 124.06-27.68L124.06-27.68 124.06-17.77 128.03-17.77 128.03-27.68Q128.03-28.98 127.46-29.59 126.9-30.2 126.05-30.2L126.05-30.2ZM149.67-19.93Q149.99-20.25 150.44-20.25L150.44-20.25Q150.88-20.25 151.25-19.84L151.25-19.84 153.09-17.77Q153.36-17.5 153.36-17.05L153.36-17.05Q153.36-16.47 153-16.2L153-16.2Q152.69-15.88 152.24-15.88L152.24-15.88Q151.78-15.88 151.43-16.29L151.43-16.29 149.58-18.36Q149.26-18.72 149.26-19.13L149.26-19.13Q149.26-19.53 149.67-19.93L149.67-19.93ZM154.8-5.13Q155.25-5.13 155.56-4.79 155.88-4.46 155.84-3.82L155.84-3.82Q155.61-0.63 154.82 1.51 154.03 3.65 152.1 3.65L152.1 3.65Q150.8 3.65 149.63 2.11 148.45 0.58 147.74-1.75L147.74-1.75Q145.8 0.36 144.22 1.62L144.22 1.62Q143.91 1.89 143.55 1.89L143.55 1.89Q142.97 1.89 142.65 1.44L142.65 1.44Q142.38 1.08 142.38 0.72L142.38 0.72Q142.38 0.18 142.83-0.14L142.83-0.14Q144.99-1.93 147.06-4.37L147.06-4.37Q146.2-8.32 145.75-12.78L145.75-12.78 139.59-12.78 139.59-9.86Q139.59-9.31 139.23-9.02 138.87-8.73 138.47-8.73L138.47-8.73Q138.06-8.73 137.7-9.02 137.34-9.31 137.34-9.86L137.34-9.86 137.34-11.92Q135.76-9.99 133.6-8.1L133.6-8.1 133.74-8.1 142.02-8.1Q142.56-8.1 142.85-7.74 143.15-7.38 143.15-6.97L143.15-6.97Q143.15-6.57 142.85-6.21 142.56-5.85 142.02-5.85L142.02-5.85 136.44-5.85 136.17-4.32 137.7-4.32Q141.93-4.32 141.93-1.13L141.93-1.13Q141.93 1.17 140.81 2.48 139.68 3.78 137.56 4.05L137.56 4.05Q137.03 4.14 136.64 3.85 136.26 3.55 136.26 3.01L136.26 3.01Q136.26 2.11 137.29 1.93L137.29 1.93Q138.51 1.75 139 1.26 139.5 0.77 139.63-0.14L139.63-0.14Q139.68-0.32 139.68-0.63L139.68-0.63Q139.68-1.35 139.16-1.71 138.65-2.07 137.25-2.07L137.25-2.07 133.51-2.07 134.19-5.85 133.74-5.85Q133.2-5.85 132.91-6.21 132.62-6.57 132.62-6.97L132.62-6.97Q132.62-7.2 132.66-7.33L132.66-7.33 132.34-7.06Q132.07-6.84 131.67-6.84L131.67-6.84Q131.09-6.84 130.77-7.29L130.77-7.29Q130.54-7.6 130.54-8.01L130.54-8.01Q130.54-8.55 131-8.87L131-8.87Q133.2-10.53 135.09-12.78L135.09-12.78 132.3-12.78Q131.76-12.78 131.47-13.14 131.18-13.5 131.18-13.9L131.18-13.9Q131.18-14.31 131.47-14.67 131.76-15.03 132.3-15.03L132.3-15.03 137.34-15.03 137.34-17.28 133.38-17.01Q132.93-16.96 132.62-17.3 132.3-17.64 132.3-18L132.3-18Q132.3-18.4 132.57-18.72 132.84-19.04 133.29-19.08L133.29-19.08Q137.75-19.35 142.47-19.89L142.47-19.89 142.6-19.89Q143.06-19.89 143.35-19.55 143.64-19.21 143.64-18.86L143.64-18.86Q143.64-18.5 143.41-18.18 143.19-17.86 142.78-17.82L142.78-17.82Q141.75-17.68 139.59-17.5L139.59-17.5 139.59-15.03 145.53-15.03Q145.44-16.38 145.35-18.99L145.35-18.99Q145.35-19.53 145.69-19.82 146.03-20.11 146.43-20.11L146.43-20.11Q146.84-20.16 147.19-19.87 147.56-19.57 147.56-19.04L147.56-19.04Q147.65-16.29 147.74-15.03L147.74-15.03 154.44-15.03Q154.98-15.03 155.27-14.67 155.56-14.31 155.56-13.9L155.56-13.9Q155.56-13.5 155.27-13.14 154.98-12.78 154.44-12.78L154.44-12.78 147.87-12.78Q148.19-9.58 148.77-6.57L148.77-6.57Q150.16-8.55 151.47-11.07L151.47-11.07Q151.88-11.65 152.5-11.65L152.5-11.65Q152.82-11.65 153-11.52L153-11.52Q153.63-11.16 153.63-10.53L153.63-10.53Q153.63-10.21 153.45-9.99L153.45-9.99Q151.69-6.71 149.35-3.69L149.35-3.69Q149.9-1.4 150.64-0.04 151.38 1.3 152.19 1.3L152.19 1.3Q152.78 1.3 153.2-0.25 153.63-1.8 153.72-4.05L153.72-4.05Q153.76-4.54 154.08-4.84 154.39-5.13 154.8-5.13L154.8-5.13ZM126.05-2.75Q126.9-2.75 127.46-3.35 128.03-3.96 128.03-5.26L128.03-5.26 128.03-15.52 124.06-15.52 124.06-5.26Q124.06-3.96 124.63-3.35 125.19-2.75 126.05-2.75L126.05-2.75ZM145.22-7.88Q144.9-7.42 144.31-7.42L144.31-7.42Q143.91-7.42 143.64-7.65L143.64-7.65 140.31-10.26Q139.86-10.66 139.86-11.16L139.86-11.16Q139.86-11.52 140.09-11.83L140.09-11.83Q140.4-12.29 140.99-12.29L140.99-12.29Q141.34-12.29 141.66-12.01L141.66-12.01 144.99-9.45Q145.44-9.04 145.44-8.55L145.44-8.55Q145.44-8.19 145.22-7.88L145.22-7.88Z" transform="translate(-1.9800000190734863, 36.630001068115234)"></path></g> <!----> <!----> <!----> <!----> <!----> <!----> <!----></g></g> <g data-gra="path-slogan" fill-rule="" class="tp-slogan iconsvg-slogansvg" fill="#333" transform="translate(5,47)"><rect x="0" height="1" y="3.9750003814697266" width="26.39221954345703"></rect> <rect height="1" y="3.9750003814697266" width="26.39221954345703" x="117.47222137451172"></rect> <g transform="translate(29.39221954345703,0)"><g transform="scale(1)"><path d="M2.30-8.58L6.61-1.64L6.61-8.58L7.73-8.58L7.73 0L6.42 0L2.06-6.94L2.02-6.94L2.02 0L0.89 0L0.89-8.58L2.30-8.58ZM15.19 0L14.34-2.48L10.88-2.48L9.98 0L8.81 0L12.05-8.58L13.36-8.58L16.45 0L15.19 0ZM12.61-7.31L11.25-3.52L13.92-3.52L12.66-7.31L12.61-7.31ZM18.89-8.58L23.20-1.64L23.20-8.58L24.33-8.58L24.33 0L23.02 0L18.66-6.94L18.61-6.94L18.61 0L17.48 0L17.48-8.58L18.89-8.58ZM27.52-8.58L31.83-1.64L31.83-8.58L32.95-8.58L32.95 0L31.64 0L27.28-6.94L27.23-6.94L27.23 0L26.11 0L26.11-8.58L27.52-8.58ZM34.92-8.58L36.09-8.58L36.09 0L34.92 0L34.92-8.58ZM39.47-8.58L43.78-1.64L43.78-8.58L44.91-8.58L44.91 0L43.59 0L39.23-6.94L39.19-6.94L39.19 0L38.06 0L38.06-8.58L39.47-8.58ZM53.11-3.61L50.48-3.61L50.48-4.59L54.23-4.59L54.23 0L53.48 0L53.20-1.08Q52.22 0.09 50.39 0.14L50.39 0.14Q48.66 0.14 47.72-0.75L47.72-0.75Q46.31-2.06 46.36-4.36L46.36-4.36Q46.69-8.63 50.44-8.81L50.44-8.81Q53.63-8.63 54.09-6L54.09-6L52.97-6Q52.50-7.78 50.39-7.83L50.39-7.83Q47.72-7.64 47.58-4.31L47.58-4.31Q47.58-0.75 50.44-0.75L50.44-0.75Q51.47-0.75 52.22-1.31L52.22-1.31Q53.16-2.06 53.11-3.61L53.11-3.61ZM58.64-1.92L58.64-2.77L59.72-2.77L59.72-2.16Q59.72-0.75 61.03-0.75L61.03-0.75Q62.39-0.75 62.39-2.25L62.39-2.25L62.39-8.58L63.56-8.58L63.56-2.30Q63.52 0.09 61.08 0.14L61.08 0.14Q58.78 0.09 58.64-1.92L58.64-1.92ZM65.53-8.58L66.70-8.58L66.70 0L65.53 0L65.53-8.58ZM74.34 0L73.50-2.48L70.03-2.48L69.14 0L67.97 0L71.20-8.58L72.52-8.58L75.61 0L74.34 0ZM71.77-7.31L70.41-3.52L73.08-3.52L71.81-7.31L71.77-7.31ZM83.39-8.58L80.48-4.41L83.53 0L82.08 0L79.73-3.52L77.39 0L75.98 0L79.08-4.41L76.17-8.58L77.63-8.58L79.78-5.30L81.98-8.58L83.39-8.58ZM84.80-8.58L85.97-8.58L85.97 0L84.80 0L84.80-8.58Z" transform="translate(-0.890625, 8.8125)"></path></g></g></g></g></g><defs v-gra="od"></defs></svg>